# MagicaVoxel @ Ephtracy

# material
mtllib cube_water04.mtl
usemtl palette

# normals
vn -1 0 0
vn 1 0 0
vn 0 0 1
vn 0 0 -1
vn 0 -1 0
vn 0 1 0

# texcoords
vt 0.748047 0.5
vt 0.763672 0.5
vt 0.771484 0.5
vt 0.775391 0.5

# verts
v -8 0 8
v -8 0 -8
v -8 1 7
v -8 1 -7
v -8 2 6
v -8 2 -6
v -8 3 5
v -8 3 -5
v -8 4 4
v -8 4 -4
v -8 6 4
v -8 6 3
v -8 8 6
v -8 8 5
v -8 8 3
v -8 8 -4
v -8 9 -5
v -8 9 -6
v -8 12 8
v -8 12 7
v -8 12 4
v -8 12 -4
v -8 12 -7
v -8 12 -8
v -8 13 5
v -8 13 -5
v -8 13 -7
v -8 13 -8
v -8 14 6
v -8 14 -6
v -8 14 -7
v -8 14 -8
v -8 15 8
v -8 15 7
v -8 15 -7
v -8 15 -8
v -8 16 8
v -8 16 -8
v -7 1 7
v -7 1 -7
v -7 2 6
v -7 2 -6
v -7 4 -4
v -7 4 -5
v -7 8 6
v -7 8 -4
v -7 9 -5
v -7 9 -6
v -7 11 5
v -7 11 4
v -7 12 7
v -7 12 4
v -7 12 -4
v -7 12 -7
v -7 13 5
v -7 13 -5
v -7 13 -7
v -7 14 6
v -7 14 -6
v -7 14 -7
v -7 15 7
v -7 15 -7
v -6 2 8
v -6 2 7
v -6 2 -7
v -6 2 -8
v -6 3 5
v -6 3 -5
v -6 4 4
v -6 4 -5
v -6 6 8
v -6 6 7
v -6 7 8
v -6 7 7
v -6 8 -7
v -6 8 -8
v -6 9 8
v -6 9 7
v -6 11 5
v -6 11 4
v -6 14 8
v -6 14 7
v -6 14 -7
v -6 14 -8
v -4 4 8
v -4 4 7
v -4 4 -7
v -4 4 -8
v -4 7 8
v -4 7 7
v -4 7 -7
v -4 7 -8
v -4 12 8
v -4 12 7
v -4 12 -7
v -4 12 -8
v 5 3 8
v 5 3 7
v 5 3 -7
v 5 3 -8
v 5 7 8
v 5 7 7
v 5 7 -7
v 5 7 -8
v 5 13 8
v 5 13 7
v 5 13 -7
v 5 13 -8
v 7 1 8
v 7 1 7
v 7 1 -7
v 7 1 -8
v 7 5 8
v 7 5 7
v 7 6 8
v 7 6 7
v 7 9 8
v 7 9 7
v 7 10 8
v 7 10 7
v 7 10 -7
v 7 10 -8
v 7 11 8
v 7 11 7
v 7 15 8
v 7 15 7
v 7 15 -7
v 7 15 -8
v -7 1 8
v -7 1 7
v -7 1 -7
v -7 1 -8
v -7 12 8
v -7 12 7
v -7 12 -7
v -7 12 -8
v -7 13 -7
v -7 13 -8
v -7 14 -7
v -7 14 -8
v -7 15 8
v -7 15 7
v -7 15 -7
v -7 15 -8
v -5 3 8
v -5 3 7
v -5 3 -7
v -5 3 -8
v -5 6 8
v -5 6 7
v -5 7 8
v -5 7 7
v -5 8 -7
v -5 8 -8
v -5 9 8
v -5 9 7
v -5 13 8
v -5 13 7
v -5 13 -7
v -5 13 -8
v 4 4 8
v 4 4 7
v 4 4 -7
v 4 4 -8
v 4 12 8
v 4 12 7
v 4 12 -7
v 4 12 -8
v 6 2 8
v 6 2 7
v 6 2 -7
v 6 2 -8
v 6 7 8
v 6 7 7
v 6 7 -7
v 6 7 -8
v 6 14 8
v 6 14 7
v 6 14 -7
v 6 14 -8
v 7 1 7
v 7 1 -7
v 7 2 6
v 7 2 -6
v 7 3 5
v 7 3 -5
v 7 3 -6
v 7 4 4
v 7 4 -4
v 7 4 -5
v 7 4 -6
v 7 5 7
v 7 6 7
v 7 6 -4
v 7 7 -5
v 7 7 -6
v 7 9 7
v 7 9 6
v 7 9 5
v 7 10 7
v 7 10 4
v 7 10 -7
v 7 11 7
v 7 12 4
v 7 12 -4
v 7 13 5
v 7 13 -5
v 7 14 6
v 7 14 -6
v 7 15 7
v 7 15 -7
v 8 0 8
v 8 0 -8
v 8 1 7
v 8 1 -7
v 8 2 6
v 8 2 -6
v 8 3 5
v 8 3 -5
v 8 3 -6
v 8 4 4
v 8 4 -4
v 8 4 -5
v 8 4 -6
v 8 5 8
v 8 5 7
v 8 6 8
v 8 6 7
v 8 6 -2
v 8 6 -4
v 8 7 -5
v 8 7 -6
v 8 9 8
v 8 9 7
v 8 9 6
v 8 9 5
v 8 10 8
v 8 10 7
v 8 10 4
v 8 10 -2
v 8 10 -7
v 8 10 -8
v 8 11 8
v 8 11 7
v 8 12 4
v 8 12 -4
v 8 13 5
v 8 13 -5
v 8 14 6
v 8 14 -6
v 8 15 8
v 8 15 7
v 8 15 -7
v 8 15 -8
v 8 16 8
v 8 16 -8
v -8 0 8
v -8 12 8
v -8 15 8
v -8 16 8
v -7 1 8
v -7 12 8
v -7 15 8
v -6 2 8
v -6 6 8
v -6 7 8
v -6 9 8
v -6 14 8
v -5 3 8
v -5 6 8
v -5 7 8
v -5 9 8
v -5 13 8
v -4 4 8
v -4 7 8
v -4 12 8
v 0 7 8
v 0 8 8
v 1 7 8
v 1 8 8
v 3 2 8
v 3 3 8
v 3 4 8
v 3 7 8
v 4 2 8
v 4 3 8
v 4 4 8
v 4 12 8
v 5 3 8
v 5 7 8
v 5 13 8
v 6 2 8
v 6 7 8
v 6 14 8
v 7 1 8
v 7 5 8
v 7 6 8
v 7 9 8
v 7 10 8
v 7 11 8
v 7 15 8
v 8 0 8
v 8 5 8
v 8 6 8
v 8 9 8
v 8 10 8
v 8 11 8
v 8 15 8
v 8 16 8
v -7 1 7
v -7 12 7
v -7 15 7
v -6 2 7
v -6 6 7
v -6 7 7
v -6 9 7
v -6 14 7
v -5 3 7
v -5 6 7
v -5 7 7
v -5 9 7
v -5 13 7
v -4 4 7
v -4 7 7
v -4 12 7
v 3 2 7
v 3 3 7
v 3 4 7
v 4 2 7
v 4 3 7
v 4 4 7
v 4 12 7
v 5 3 7
v 5 7 7
v 5 13 7
v 6 2 7
v 6 7 7
v 6 14 7
v 7 1 7
v 7 5 7
v 7 6 7
v 7 9 7
v 7 10 7
v 7 11 7
v 7 15 7
v -8 2 6
v -8 8 6
v -8 14 6
v -7 2 6
v -7 8 6
v -7 14 6
v 7 2 6
v 7 9 6
v 7 14 6
v 8 2 6
v 8 9 6
v 8 14 6
v -8 4 4
v -8 6 4
v -8 12 4
v -7 4 4
v -7 6 4
v -7 11 4
v -7 12 4
v -6 4 4
v -6 11 4
v 7 4 4
v 7 10 4
v 7 12 4
v 8 4 4
v 8 10 4
v 8 12 4
v -8 3 -5
v -8 9 -5
v -8 13 -5
v -7 3 -5
v -7 4 -5
v -7 9 -5
v -7 13 -5
v -6 3 -5
v -6 4 -5
v 7 3 -5
v 7 4 -5
v 7 7 -5
v 7 13 -5
v 8 3 -5
v 8 4 -5
v 8 7 -5
v 8 13 -5
v -8 1 -7
v -8 12 -7
v -8 13 -7
v -8 14 -7
v -8 15 -7
v -7 1 -7
v -7 12 -7
v -7 13 -7
v -7 14 -7
v -7 15 -7
v 7 1 -7
v 7 10 -7
v 7 15 -7
v 8 1 -7
v 8 10 -7
v 8 15 -7
v -8 1 7
v -8 12 7
v -8 15 7
v -7 1 7
v -7 12 7
v -7 15 7
v 7 1 7
v 7 5 7
v 7 6 7
v 7 9 7
v 7 10 7
v 7 11 7
v 7 15 7
v 8 1 7
v 8 5 7
v 8 6 7
v 8 9 7
v 8 10 7
v 8 11 7
v 8 15 7
v -8 3 5
v -8 8 5
v -8 13 5
v -7 3 5
v -7 8 5
v -7 11 5
v -7 13 5
v -6 3 5
v -6 11 5
v 7 3 5
v 7 9 5
v 7 13 5
v 8 3 5
v 8 9 5
v 8 13 5
v -8 4 -4
v -8 8 -4
v -8 12 -4
v -7 4 -4
v -7 8 -4
v -7 12 -4
v 7 4 -4
v 7 6 -4
v 7 12 -4
v 8 4 -4
v 8 6 -4
v 8 12 -4
v -8 2 -6
v -8 9 -6
v -8 14 -6
v -7 2 -6
v -7 9 -6
v -7 14 -6
v 7 2 -6
v 7 3 -6
v 7 4 -6
v 7 7 -6
v 7 14 -6
v 8 2 -6
v 8 3 -6
v 8 4 -6
v 8 7 -6
v 8 14 -6
v -7 1 -7
v -7 12 -7
v -7 13 -7
v -7 14 -7
v -7 15 -7
v -6 2 -7
v -6 8 -7
v -6 14 -7
v -5 3 -7
v -5 8 -7
v -5 13 -7
v -4 4 -7
v -4 7 -7
v -4 12 -7
v 3 4 -7
v 4 4 -7
v 4 12 -7
v 5 3 -7
v 5 7 -7
v 5 13 -7
v 6 2 -7
v 6 7 -7
v 6 14 -7
v 7 1 -7
v 7 10 -7
v 7 15 -7
v -8 0 -8
v -8 12 -8
v -8 13 -8
v -8 14 -8
v -8 15 -8
v -8 16 -8
v -7 1 -8
v -7 12 -8
v -7 13 -8
v -7 14 -8
v -7 15 -8
v -6 2 -8
v -6 8 -8
v -6 14 -8
v -5 3 -8
v -5 8 -8
v -5 13 -8
v -4 4 -8
v -4 7 -8
v -4 12 -8
v 3 4 -8
v 3 7 -8
v 4 4 -8
v 4 12 -8
v 5 3 -8
v 5 7 -8
v 5 13 -8
v 6 2 -8
v 6 7 -8
v 6 14 -8
v 7 1 -8
v 7 10 -8
v 7 15 -8
v 8 0 -8
v 8 10 -8
v 8 15 -8
v 8 16 -8
v -8 0 8
v 8 0 8
v -7 0 7
v 7 0 7
v -7 0 -7
v 7 0 -7
v -8 0 -8
v 8 0 -8
v -6 2 8
v 3 2 8
v 4 2 8
v 6 2 8
v -6 2 7
v 3 2 7
v 4 2 7
v 6 2 7
v -8 2 6
v -7 2 6
v 7 2 6
v 8 2 6
v -8 2 -6
v -7 2 -6
v 7 2 -6
v 8 2 -6
v -6 2 -7
v 6 2 -7
v -6 2 -8
v 6 2 -8
v -4 4 8
v 3 4 8
v 4 4 8
v -4 4 7
v 3 4 7
v 4 4 7
v -8 4 4
v -7 4 4
v -6 4 4
v 7 4 4
v 8 4 4
v -8 4 -4
v -7 4 -4
v 7 4 -4
v 8 4 -4
v -7 4 -5
v -6 4 -5
v -4 4 -7
v 3 4 -7
v 4 4 -7
v -4 4 -8
v 3 4 -8
v 4 4 -8
v -7 11 5
v -6 11 5
v -7 11 4
v -6 11 4
v -5 13 8
v 5 13 8
v -5 13 7
v 5 13 7
v -8 13 5
v -7 13 5
v 7 13 5
v 8 13 5
v -8 13 -5
v -7 13 -5
v 7 13 -5
v 8 13 -5
v -5 13 -7
v 5 13 -7
v -5 13 -8
v 5 13 -8
v -7 15 8
v 7 15 8
v -8 15 7
v -7 15 7
v 7 15 7
v 8 15 7
v -8 15 -7
v -7 15 -7
v 7 15 -7
v 8 15 -7
v -7 15 -8
v 7 15 -8
v -7 1 8
v 7 1 8
v -8 1 7
v -7 1 7
v 7 1 7
v 8 1 7
v -8 1 -7
v -7 1 -7
v 7 1 -7
v 8 1 -7
v -7 1 -8
v 7 1 -8
v -5 3 8
v 3 3 8
v 4 3 8
v 5 3 8
v -5 3 7
v 3 3 7
v 4 3 7
v 5 3 7
v -8 3 5
v -7 3 5
v -6 3 5
v 7 3 5
v 8 3 5
v -8 3 -5
v -7 3 -5
v -6 3 -5
v 7 3 -5
v 8 3 -5
v -5 3 -7
v 5 3 -7
v -5 3 -8
v 5 3 -8
v -4 12 8
v 4 12 8
v -4 12 7
v 4 12 7
v -8 12 4
v -7 12 4
v 7 12 4
v 8 12 4
v -8 12 -4
v -7 12 -4
v 7 12 -4
v 8 12 -4
v -4 12 -7
v 4 12 -7
v -4 12 -8
v 4 12 -8
v -6 14 8
v 6 14 8
v -6 14 7
v 6 14 7
v -8 14 6
v -7 14 6
v 7 14 6
v 8 14 6
v -8 14 -6
v -7 14 -6
v 7 14 -6
v 8 14 -6
v -6 14 -7
v 6 14 -7
v -6 14 -8
v 6 14 -8
v -8 16 8
v 8 16 8
v -8 16 -8
v 8 16 -8

# faces
f 3/4/1 2/4/1 1/4/1
f 4/4/1 2/4/1 3/4/1
f 7/4/1 6/4/1 5/4/1
f 8/4/1 6/4/1 7/4/1
f 11/4/1 10/4/1 9/4/1
f 12/4/1 10/4/1 11/4/1
f 13/4/1 7/4/1 5/4/1
f 14/4/1 7/4/1 13/4/1
f 15/4/1 10/4/1 12/4/1
f 15/3/1 12/3/1 11/3/1
f 16/4/1 10/4/1 15/4/1
f 17/4/1 6/4/1 8/4/1
f 18/4/1 6/4/1 17/4/1
f 19/4/1 3/4/1 1/4/1
f 20/4/1 3/4/1 19/4/1
f 21/3/1 16/3/1 15/3/1
f 21/3/1 15/3/1 11/3/1
f 22/3/1 16/3/1 21/3/1
f 23/4/1 2/4/1 4/4/1
f 24/4/1 2/4/1 23/4/1
f 25/3/1 14/3/1 13/3/1
f 26/3/1 18/3/1 17/3/1
f 27/3/1 24/3/1 23/3/1
f 28/3/1 24/3/1 27/3/1
f 29/3/1 26/3/1 25/3/1
f 29/3/1 25/3/1 13/3/1
f 30/3/1 18/3/1 26/3/1
f 30/3/1 26/3/1 29/3/1
f 31/4/1 28/4/1 27/4/1
f 32/4/1 28/4/1 31/4/1
f 33/3/1 20/3/1 19/3/1
f 34/3/1 20/3/1 33/3/1
f 35/3/1 32/3/1 31/3/1
f 36/3/1 32/3/1 35/3/1
f 37/1/1 34/1/1 33/1/1
f 37/1/1 35/1/1 34/1/1
f 37/1/1 36/1/1 35/1/1
f 38/1/1 36/1/1 37/1/1
f 41/2/1 40/2/1 39/2/1
f 42/2/1 40/2/1 41/2/1
f 45/2/1 41/2/1 39/2/1
f 46/2/1 44/2/1 43/2/1
f 47/2/1 44/2/1 46/2/1
f 48/2/1 40/2/1 42/2/1
f 51/2/1 45/2/1 39/2/1
f 52/2/1 50/2/1 49/2/1
f 53/2/1 47/2/1 46/2/1
f 54/2/1 40/2/1 48/2/1
f 55/2/1 52/2/1 49/2/1
f 55/2/1 53/2/1 52/2/1
f 56/2/1 47/2/1 53/2/1
f 56/2/1 53/2/1 55/2/1
f 57/2/1 54/2/1 48/2/1
f 58/2/1 45/2/1 51/2/1
f 59/2/1 57/2/1 48/2/1
f 60/2/1 57/2/1 59/2/1
f 61/2/1 58/2/1 51/2/1
f 61/2/1 59/2/1 58/2/1
f 61/2/1 60/2/1 59/2/1
f 62/2/1 60/2/1 61/2/1
f 69/2/1 68/2/1 67/2/1
f 70/2/1 68/2/1 69/2/1
f 71/4/1 64/4/1 63/4/1
f 72/4/1 64/4/1 71/4/1
f 73/3/1 72/3/1 71/3/1
f 74/3/1 72/3/1 73/3/1
f 75/4/1 66/4/1 65/4/1
f 76/4/1 66/4/1 75/4/1
f 77/4/1 74/4/1 73/4/1
f 78/4/1 74/4/1 77/4/1
f 79/2/1 69/2/1 67/2/1
f 80/2/1 69/2/1 79/2/1
f 81/3/1 78/3/1 77/3/1
f 82/3/1 78/3/1 81/3/1
f 83/3/1 76/3/1 75/3/1
f 84/3/1 76/3/1 83/3/1
f 89/4/1 86/4/1 85/4/1
f 90/4/1 86/4/1 89/4/1
f 91/4/1 88/4/1 87/4/1
f 92/4/1 88/4/1 91/4/1
f 93/3/1 90/3/1 89/3/1
f 94/3/1 90/3/1 93/3/1
f 95/3/1 92/3/1 91/3/1
f 96/3/1 92/3/1 95/3/1
f 101/4/1 98/4/1 97/4/1
f 102/4/1 98/4/1 101/4/1
f 103/4/1 100/4/1 99/4/1
f 104/4/1 100/4/1 103/4/1
f 105/3/1 102/3/1 101/3/1
f 106/3/1 102/3/1 105/3/1
f 107/3/1 104/3/1 103/3/1
f 108/3/1 104/3/1 107/3/1
f 113/4/1 110/4/1 109/4/1
f 114/4/1 110/4/1 113/4/1
f 115/3/1 114/3/1 113/3/1
f 116/3/1 114/3/1 115/3/1
f 117/4/1 116/4/1 115/4/1
f 118/4/1 116/4/1 117/4/1
f 119/3/1 118/3/1 117/3/1
f 120/3/1 118/3/1 119/3/1
f 121/4/1 112/4/1 111/4/1
f 122/4/1 112/4/1 121/4/1
f 123/4/1 120/4/1 119/4/1
f 124/4/1 120/4/1 123/4/1
f 125/3/1 124/3/1 123/3/1
f 126/3/1 124/3/1 125/3/1
f 127/3/1 122/3/1 121/3/1
f 128/3/1 122/3/1 127/3/1
f 129/4/2 130/4/2 133/4/2
f 133/4/2 130/4/2 134/4/2
f 131/4/2 132/4/2 135/4/2
f 135/4/2 132/4/2 136/4/2
f 135/3/2 136/3/2 137/3/2
f 137/3/2 136/3/2 138/3/2
f 137/4/2 138/4/2 139/4/2
f 139/4/2 138/4/2 140/4/2
f 133/3/2 134/3/2 141/3/2
f 141/3/2 134/3/2 142/3/2
f 139/3/2 140/3/2 143/3/2
f 143/3/2 140/3/2 144/3/2
f 145/4/2 146/4/2 149/4/2
f 149/4/2 146/4/2 150/4/2
f 149/3/2 150/3/2 151/3/2
f 151/3/2 150/3/2 152/3/2
f 147/4/2 148/4/2 153/4/2
f 153/4/2 148/4/2 154/4/2
f 151/4/2 152/4/2 155/4/2
f 155/4/2 152/4/2 156/4/2
f 155/3/2 156/3/2 157/3/2
f 157/3/2 156/3/2 158/3/2
f 153/3/2 154/3/2 159/3/2
f 159/3/2 154/3/2 160/3/2
f 161/3/2 162/3/2 165/3/2
f 165/3/2 162/3/2 166/3/2
f 163/3/2 164/3/2 167/3/2
f 167/3/2 164/3/2 168/3/2
f 169/4/2 170/4/2 173/4/2
f 173/4/2 170/4/2 174/4/2
f 171/4/2 172/4/2 175/4/2
f 175/4/2 172/4/2 176/4/2
f 173/3/2 174/3/2 177/3/2
f 177/3/2 174/3/2 178/3/2
f 175/3/2 176/3/2 179/3/2
f 179/3/2 176/3/2 180/3/2
f 181/2/2 182/2/2 183/2/2
f 183/2/2 182/2/2 184/2/2
f 184/2/2 182/2/2 187/2/2
f 185/2/2 186/2/2 188/2/2
f 188/2/2 186/2/2 189/2/2
f 189/2/2 186/2/2 190/2/2
f 187/2/2 182/2/2 191/2/2
f 181/2/2 183/2/2 192/2/2
f 192/2/2 183/2/2 193/2/2
f 189/2/2 190/2/2 194/2/2
f 194/2/2 190/2/2 195/2/2
f 191/2/2 182/2/2 196/2/2
f 193/2/2 183/2/2 197/2/2
f 197/2/2 183/2/2 198/2/2
f 185/2/2 188/2/2 199/2/2
f 197/2/2 198/2/2 200/2/2
f 199/2/2 188/2/2 201/2/2
f 196/2/2 182/2/2 202/2/2
f 200/2/2 198/2/2 203/2/2
f 199/2/2 201/2/2 204/2/2
f 194/2/2 195/2/2 205/2/2
f 199/2/2 204/2/2 206/2/2
f 204/2/2 205/2/2 206/2/2
f 205/2/2 195/2/2 207/2/2
f 206/2/2 205/2/2 207/2/2
f 203/2/2 198/2/2 208/2/2
f 196/2/2 202/2/2 209/2/2
f 203/2/2 208/2/2 210/2/2
f 208/2/2 209/2/2 210/2/2
f 209/2/2 202/2/2 211/2/2
f 210/2/2 209/2/2 211/2/2
f 212/4/2 213/4/2 214/4/2
f 214/4/2 213/4/2 215/4/2
f 216/4/2 217/4/2 218/4/2
f 218/4/2 217/4/2 219/4/2
f 219/4/2 217/4/2 220/4/2
f 219/3/2 220/3/2 223/3/2
f 223/3/2 220/3/2 224/3/2
f 212/4/2 214/4/2 225/4/2
f 225/4/2 214/4/2 226/4/2
f 225/3/2 226/3/2 227/3/2
f 227/3/2 226/3/2 228/3/2
f 221/4/2 222/4/2 229/4/2
f 229/4/2 222/4/2 230/4/2
f 223/4/2 224/4/2 231/4/2
f 231/4/2 224/4/2 232/4/2
f 227/4/2 228/4/2 233/4/2
f 233/4/2 228/4/2 234/4/2
f 216/4/2 218/4/2 235/4/2
f 235/4/2 218/4/2 236/4/2
f 233/3/2 234/3/2 237/3/2
f 237/3/2 234/3/2 238/3/2
f 221/4/2 229/4/2 239/4/2
f 229/3/2 230/3/2 240/3/2
f 239/4/2 229/4/2 240/4/2
f 215/4/2 213/4/2 241/4/2
f 241/4/2 213/4/2 242/4/2
f 237/4/2 238/4/2 243/4/2
f 243/4/2 238/4/2 244/4/2
f 239/3/2 240/3/2 245/3/2
f 240/3/2 230/3/2 246/3/2
f 245/3/2 240/3/2 246/3/2
f 235/3/2 236/3/2 247/3/2
f 231/3/2 232/3/2 248/3/2
f 235/3/2 247/3/2 249/3/2
f 247/3/2 248/3/2 249/3/2
f 248/3/2 232/3/2 250/3/2
f 249/3/2 248/3/2 250/3/2
f 243/3/2 244/3/2 251/3/2
f 251/3/2 244/3/2 252/3/2
f 241/3/2 242/3/2 253/3/2
f 253/3/2 242/3/2 254/3/2
f 251/1/2 252/1/2 255/1/2
f 252/1/2 253/1/2 255/1/2
f 253/1/2 254/1/2 255/1/2
f 255/1/2 254/1/2 256/1/2
f 261/4/3 258/4/3 257/4/3
f 262/3/3 259/3/3 258/3/3
f 262/4/3 258/4/3 261/4/3
f 263/1/3 260/1/3 259/1/3
f 263/3/3 259/3/3 262/3/3
f 269/4/3 265/4/3 264/4/3
f 270/3/3 266/3/3 265/3/3
f 270/4/3 265/4/3 269/4/3
f 271/4/3 267/4/3 266/4/3
f 271/3/3 266/3/3 270/3/3
f 272/3/3 268/3/3 267/3/3
f 272/4/3 267/4/3 271/4/3
f 273/3/3 268/3/3 272/3/3
f 277/4/3 275/4/3 274/4/3
f 277/3/3 276/3/3 275/3/3
f 278/3/3 276/3/3 277/3/3
f 279/4/3 277/4/3 274/4/3
f 279/4/3 278/4/3 277/4/3
f 280/3/3 276/3/3 278/3/3
f 280/4/3 278/4/3 279/4/3
f 281/4/3 269/4/3 264/4/3
f 282/4/3 269/4/3 281/4/3
f 283/4/3 279/4/3 274/4/3
f 284/3/3 280/3/3 279/3/3
f 284/4/3 279/4/3 283/4/3
f 285/3/3 282/3/3 281/3/3
f 286/3/3 282/3/3 285/3/3
f 287/3/3 284/3/3 283/3/3
f 288/3/3 276/3/3 280/3/3
f 288/3/3 284/3/3 287/3/3
f 288/3/3 280/3/3 284/3/3
f 289/4/3 286/4/3 285/4/3
f 291/3/3 268/3/3 273/3/3
f 292/4/3 290/4/3 289/4/3
f 292/4/3 289/4/3 285/4/3
f 293/3/3 291/3/3 290/3/3
f 293/4/3 290/4/3 292/4/3
f 294/3/3 268/3/3 291/3/3
f 294/3/3 291/3/3 293/3/3
f 295/4/3 261/4/3 257/4/3
f 301/1/3 260/1/3 263/1/3
f 302/4/3 295/4/3 257/4/3
f 302/4/3 296/4/3 295/4/3
f 303/3/3 297/3/3 296/3/3
f 303/4/3 296/4/3 302/4/3
f 304/4/3 298/4/3 297/4/3
f 304/3/3 297/3/3 303/3/3
f 305/3/3 299/3/3 298/3/3
f 305/4/3 298/4/3 304/4/3
f 306/4/3 300/4/3 299/4/3
f 306/3/3 299/3/3 305/3/3
f 307/3/3 301/3/3 300/3/3
f 307/4/3 300/4/3 306/4/3
f 308/1/3 260/1/3 301/1/3
f 308/3/3 301/3/3 307/3/3
f 309/1/3 260/1/3 308/1/3
f 313/2/3 311/2/3 310/2/3
f 313/2/3 312/2/3 311/2/3
f 314/2/3 312/2/3 313/2/3
f 315/2/3 312/2/3 314/2/3
f 316/2/3 312/2/3 315/2/3
f 317/2/3 312/2/3 316/2/3
f 323/2/3 319/2/3 318/2/3
f 323/2/3 322/2/3 321/2/3
f 323/2/3 321/2/3 320/2/3
f 323/2/3 320/2/3 319/2/3
f 324/2/3 322/2/3 323/2/3
f 325/2/3 322/2/3 324/2/3
f 326/2/3 313/2/3 310/2/3
f 327/2/3 323/2/3 318/2/3
f 328/2/3 323/2/3 327/2/3
f 329/2/3 326/2/3 310/2/3
f 330/2/3 328/2/3 327/2/3
f 331/2/3 328/2/3 330/2/3
f 332/2/3 322/2/3 325/2/3
f 333/2/3 331/2/3 330/2/3
f 333/2/3 332/2/3 331/2/3
f 334/2/3 332/2/3 333/2/3
f 335/2/3 322/2/3 332/2/3
f 335/2/3 332/2/3 334/2/3
f 336/2/3 329/2/3 310/2/3
f 338/2/3 312/2/3 317/2/3
f 339/2/3 337/2/3 336/2/3
f 339/2/3 338/2/3 337/2/3
f 339/2/3 336/2/3 310/2/3
f 340/2/3 338/2/3 339/2/3
f 341/2/3 338/2/3 340/2/3
f 342/2/3 338/2/3 341/2/3
f 343/2/3 338/2/3 342/2/3
f 344/2/3 338/2/3 343/2/3
f 345/2/3 312/2/3 338/2/3
f 345/2/3 338/2/3 344/2/3
f 349/4/3 347/4/3 346/4/3
f 350/3/3 348/3/3 347/3/3
f 350/4/3 347/4/3 349/4/3
f 351/3/3 348/3/3 350/3/3
f 355/4/3 353/4/3 352/4/3
f 356/3/3 354/3/3 353/3/3
f 356/4/3 353/4/3 355/4/3
f 357/3/3 354/3/3 356/3/3
f 361/4/3 359/4/3 358/4/3
f 362/3/3 360/3/3 359/3/3
f 362/4/3 359/4/3 361/4/3
f 363/3/3 360/3/3 362/3/3
f 364/3/3 360/3/3 363/3/3
f 365/2/3 362/2/3 361/2/3
f 365/2/3 363/2/3 362/2/3
f 366/2/3 363/2/3 365/2/3
f 370/4/3 368/4/3 367/4/3
f 371/3/3 369/3/3 368/3/3
f 371/4/3 368/4/3 370/4/3
f 372/3/3 369/3/3 371/3/3
f 376/4/3 374/4/3 373/4/3
f 377/4/3 374/4/3 376/4/3
f 378/3/3 375/3/3 374/3/3
f 378/4/3 374/4/3 377/4/3
f 379/3/3 375/3/3 378/3/3
f 380/2/3 377/2/3 376/2/3
f 381/2/3 377/2/3 380/2/3
f 386/3/3 383/3/3 382/3/3
f 387/4/3 384/4/3 383/4/3
f 387/3/3 383/3/3 386/3/3
f 388/3/3 385/3/3 384/3/3
f 388/4/3 384/4/3 387/4/3
f 389/3/3 385/3/3 388/3/3
f 395/4/3 391/4/3 390/4/3
f 396/3/3 392/3/3 391/3/3
f 396/4/3 391/4/3 395/4/3
f 397/4/3 393/4/3 392/4/3
f 397/3/3 392/3/3 396/3/3
f 398/3/3 394/3/3 393/3/3
f 398/4/3 393/4/3 397/4/3
f 399/3/3 394/3/3 398/3/3
f 403/4/3 401/4/3 400/4/3
f 404/3/3 402/3/3 401/3/3
f 404/4/3 401/4/3 403/4/3
f 405/3/3 402/3/3 404/3/3
f 406/4/4 407/4/4 409/4/4
f 407/3/4 408/3/4 410/3/4
f 409/4/4 407/4/4 410/4/4
f 410/3/4 408/3/4 411/3/4
f 412/4/4 413/4/4 419/4/4
f 413/3/4 414/3/4 420/3/4
f 419/4/4 413/4/4 420/4/4
f 414/4/4 415/4/4 421/4/4
f 420/3/4 414/3/4 421/3/4
f 415/3/4 416/3/4 422/3/4
f 421/4/4 415/4/4 422/4/4
f 416/4/4 417/4/4 423/4/4
f 422/3/4 416/3/4 423/3/4
f 417/3/4 418/3/4 424/3/4
f 423/4/4 417/4/4 424/4/4
f 424/3/4 418/3/4 425/3/4
f 426/4/4 427/4/4 429/4/4
f 427/3/4 428/3/4 430/3/4
f 429/4/4 427/4/4 430/4/4
f 430/3/4 428/3/4 431/3/4
f 431/3/4 428/3/4 432/3/4
f 429/2/4 430/2/4 433/2/4
f 430/2/4 431/2/4 433/2/4
f 433/2/4 431/2/4 434/2/4
f 435/4/4 436/4/4 438/4/4
f 436/3/4 437/3/4 439/3/4
f 438/4/4 436/4/4 439/4/4
f 439/3/4 437/3/4 440/3/4
f 441/4/4 442/4/4 444/4/4
f 442/3/4 443/3/4 445/3/4
f 444/4/4 442/4/4 445/4/4
f 445/3/4 443/3/4 446/3/4
f 447/4/4 448/4/4 450/4/4
f 448/3/4 449/3/4 451/3/4
f 450/4/4 448/4/4 451/4/4
f 451/3/4 449/3/4 452/3/4
f 453/4/4 454/4/4 456/4/4
f 454/3/4 455/3/4 457/3/4
f 456/4/4 454/4/4 457/4/4
f 457/3/4 455/3/4 458/3/4
f 459/4/4 460/4/4 464/4/4
f 460/3/4 461/3/4 465/3/4
f 464/4/4 460/4/4 465/4/4
f 461/4/4 462/4/4 466/4/4
f 465/3/4 461/3/4 466/3/4
f 462/3/4 463/3/4 467/3/4
f 466/4/4 462/4/4 467/4/4
f 467/3/4 463/3/4 468/3/4
f 469/2/4 470/2/4 474/2/4
f 472/2/4 473/2/4 474/2/4
f 471/2/4 472/2/4 474/2/4
f 470/2/4 471/2/4 474/2/4
f 474/2/4 473/2/4 475/2/4
f 475/2/4 473/2/4 476/2/4
f 477/2/4 478/2/4 480/2/4
f 478/2/4 479/2/4 480/2/4
f 480/2/4 479/2/4 481/2/4
f 481/2/4 479/2/4 482/2/4
f 477/2/4 480/2/4 483/2/4
f 477/2/4 483/2/4 484/2/4
f 482/2/4 479/2/4 485/2/4
f 477/2/4 484/2/4 486/2/4
f 484/2/4 485/2/4 486/2/4
f 486/2/4 485/2/4 487/2/4
f 485/2/4 479/2/4 488/2/4
f 487/2/4 485/2/4 488/2/4
f 469/2/4 474/2/4 489/2/4
f 476/2/4 473/2/4 491/2/4
f 489/2/4 490/2/4 492/2/4
f 490/2/4 491/2/4 492/2/4
f 469/2/4 489/2/4 492/2/4
f 492/2/4 491/2/4 493/2/4
f 491/2/4 473/2/4 494/2/4
f 493/2/4 491/2/4 494/2/4
f 495/4/4 496/4/4 501/4/4
f 496/3/4 497/3/4 502/3/4
f 501/4/4 496/4/4 502/4/4
f 497/4/4 498/4/4 503/4/4
f 502/3/4 497/3/4 503/3/4
f 498/3/4 499/3/4 504/3/4
f 503/4/4 498/4/4 504/4/4
f 499/1/4 500/1/4 505/1/4
f 504/3/4 499/3/4 505/3/4
f 506/4/4 507/4/4 509/4/4
f 507/3/4 508/3/4 510/3/4
f 509/4/4 507/4/4 510/4/4
f 510/3/4 508/3/4 511/3/4
f 512/4/4 513/4/4 515/4/4
f 513/3/4 514/3/4 516/3/4
f 515/4/4 513/4/4 516/4/4
f 515/3/4 516/3/4 517/3/4
f 516/3/4 514/3/4 518/3/4
f 517/3/4 516/3/4 518/3/4
f 506/4/4 509/4/4 519/4/4
f 511/3/4 508/3/4 521/3/4
f 519/4/4 520/4/4 522/4/4
f 506/4/4 519/4/4 522/4/4
f 520/3/4 521/3/4 523/3/4
f 522/4/4 520/4/4 523/4/4
f 521/3/4 508/3/4 524/3/4
f 523/3/4 521/3/4 524/3/4
f 495/4/4 501/4/4 525/4/4
f 505/1/4 500/1/4 527/1/4
f 525/4/4 526/4/4 528/4/4
f 495/4/4 525/4/4 528/4/4
f 526/3/4 527/3/4 529/3/4
f 528/4/4 526/4/4 529/4/4
f 527/1/4 500/1/4 530/1/4
f 529/3/4 527/3/4 530/3/4
f 530/1/4 500/1/4 531/1/4
f 534/4/5 533/4/5 532/4/5
f 535/4/5 533/4/5 534/4/5
f 536/4/5 534/4/5 532/4/5
f 536/3/5 535/3/5 534/3/5
f 537/4/5 533/4/5 535/4/5
f 537/3/5 535/3/5 536/3/5
f 538/4/5 536/4/5 532/4/5
f 538/4/5 537/4/5 536/4/5
f 539/4/5 533/4/5 537/4/5
f 539/4/5 537/4/5 538/4/5
f 544/4/5 541/4/5 540/4/5
f 545/3/5 542/3/5 541/3/5
f 545/4/5 541/4/5 544/4/5
f 546/4/5 543/4/5 542/4/5
f 546/3/5 542/3/5 545/3/5
f 547/4/5 543/4/5 546/4/5
f 552/4/5 549/4/5 548/4/5
f 553/4/5 549/4/5 552/4/5
f 554/4/5 551/4/5 550/4/5
f 555/4/5 551/4/5 554/4/5
f 558/4/5 557/4/5 556/4/5
f 559/4/5 557/4/5 558/4/5
f 563/4/5 561/4/5 560/4/5
f 564/3/5 562/3/5 561/3/5
f 564/4/5 561/4/5 563/4/5
f 565/3/5 562/3/5 564/3/5
f 571/4/5 567/4/5 566/4/5
f 572/2/5 568/2/5 567/2/5
f 572/4/5 567/4/5 571/4/5
f 573/4/5 570/4/5 569/4/5
f 574/4/5 570/4/5 573/4/5
f 575/2/5 568/2/5 572/2/5
f 576/2/5 568/2/5 575/2/5
f 580/4/5 578/4/5 577/4/5
f 581/3/5 579/3/5 578/3/5
f 581/4/5 578/4/5 580/4/5
f 582/3/5 579/3/5 581/3/5
f 585/2/5 584/2/5 583/2/5
f 586/2/5 584/2/5 585/2/5
f 589/3/5 588/3/5 587/3/5
f 590/3/5 588/3/5 589/3/5
f 595/3/5 592/3/5 591/3/5
f 596/3/5 592/3/5 595/3/5
f 597/3/5 594/3/5 593/3/5
f 598/3/5 594/3/5 597/3/5
f 601/3/5 600/3/5 599/3/5
f 602/3/5 600/3/5 601/3/5
f 606/1/5 604/1/5 603/1/5
f 607/1/5 604/1/5 606/1/5
f 609/1/5 606/1/5 605/1/5
f 610/1/5 606/1/5 609/1/5
f 611/1/5 608/1/5 607/1/5
f 612/1/5 608/1/5 611/1/5
f 613/1/5 611/1/5 610/1/5
f 614/1/5 611/1/5 613/1/5
f 615/4/6 616/4/6 618/4/6
f 618/4/6 616/4/6 619/4/6
f 617/4/6 618/4/6 621/4/6
f 621/4/6 618/4/6 622/4/6
f 619/4/6 620/4/6 623/4/6
f 623/4/6 620/4/6 624/4/6
f 622/4/6 623/4/6 625/4/6
f 625/4/6 623/4/6 626/4/6
f 627/4/6 628/4/6 631/4/6
f 628/3/6 629/3/6 632/3/6
f 631/4/6 628/4/6 632/4/6
f 629/4/6 630/4/6 633/4/6
f 632/3/6 629/3/6 633/3/6
f 633/4/6 630/4/6 634/4/6
f 635/4/6 636/4/6 640/4/6
f 636/2/6 637/2/6 641/2/6
f 640/4/6 636/4/6 641/4/6
f 641/2/6 637/2/6 642/2/6
f 638/4/6 639/4/6 643/4/6
f 643/4/6 639/4/6 644/4/6
f 645/4/6 646/4/6 647/4/6
f 647/4/6 646/4/6 648/4/6
f 649/3/6 650/3/6 651/3/6
f 651/3/6 650/3/6 652/3/6
f 653/3/6 654/3/6 657/3/6
f 657/3/6 654/3/6 658/3/6
f 655/3/6 656/3/6 659/3/6
f 659/3/6 656/3/6 660/3/6
f 661/3/6 662/3/6 663/3/6
f 663/3/6 662/3/6 664/3/6
f 665/3/6 666/3/6 667/3/6
f 667/3/6 666/3/6 668/3/6
f 669/3/6 670/3/6 673/3/6
f 673/3/6 670/3/6 674/3/6
f 671/3/6 672/3/6 675/3/6
f 675/3/6 672/3/6 676/3/6
f 677/3/6 678/3/6 679/3/6
f 679/3/6 678/3/6 680/3/6
f 681/1/6 682/1/6 683/1/6
f 683/1/6 682/1/6 684/1/6
