# MagicaVoxel @ Ephtracy

# material
mtllib Stage_earth-cube07.mtl
usemtl palette

# normals
vn -1 0 0
vn 1 0 0
vn 0 0 1
vn 0 0 -1
vn 0 -1 0
vn 0 1 0

# texcoords
vt 0.158203 0.5
vt 0.208984 0.5
vt 0.482422 0.5

# verts
v -8 5 1
v -8 5 -1
v -8 10 1
v -8 10 -1
v -8 11 1
v -8 11 -1
v -7 11 1
v -7 11 -1
v -7 12 1
v -7 12 -1
v -7 5 1
v -7 5 -1
v -7 6 1
v -7 6 -1
v -6 6 1
v -6 6 -1
v -6 10 1
v -6 10 -1
v -6 11 1
v -6 11 -1
v -6 12 1
v -6 12 -1
v -8 5 1
v -8 10 1
v -8 11 1
v -7 5 1
v -7 6 1
v -7 11 1
v -7 12 1
v -6 6 1
v -6 10 1
v -6 11 1
v -6 12 1
v -8 5 -1
v -8 10 -1
v -8 11 -1
v -7 5 -1
v -7 6 -1
v -7 11 -1
v -7 12 -1
v -6 6 -1
v -6 10 -1
v -6 11 -1
v -6 12 -1
v -8 5 1
v -7 5 1
v -8 5 -1
v -7 5 -1
v -7 6 1
v -6 6 1
v -7 6 -1
v -6 6 -1
v -8 11 1
v -7 11 1
v -8 11 -1
v -7 11 -1
v -7 12 1
v -6 12 1
v -7 12 -1
v -6 12 -1

# faces
f 3/1/1 2/1/1 1/1/1
f 4/1/1 2/1/1 3/1/1
f 5/2/1 4/2/1 3/2/1
f 6/2/1 4/2/1 5/2/1
f 9/3/1 8/3/1 7/3/1
f 10/3/1 8/3/1 9/3/1
f 11/1/2 12/1/2 13/1/2
f 13/1/2 12/1/2 14/1/2
f 15/1/2 16/1/2 17/1/2
f 17/1/2 16/1/2 18/1/2
f 17/2/2 18/2/2 19/2/2
f 19/2/2 18/2/2 20/2/2
f 19/3/2 20/3/2 21/3/2
f 21/3/2 20/3/2 22/3/2
f 26/1/3 24/1/3 23/1/3
f 27/1/3 24/1/3 26/1/3
f 28/2/3 25/2/3 24/2/3
f 30/1/3 24/1/3 27/1/3
f 31/2/3 28/2/3 24/2/3
f 31/1/3 24/1/3 30/1/3
f 32/3/3 29/3/3 28/3/3
f 32/2/3 28/2/3 31/2/3
f 33/3/3 29/3/3 32/3/3
f 34/1/4 35/1/4 37/1/4
f 37/1/4 35/1/4 38/1/4
f 35/2/4 36/2/4 39/2/4
f 38/1/4 35/1/4 41/1/4
f 35/2/4 39/2/4 42/2/4
f 41/1/4 35/1/4 42/1/4
f 39/3/4 40/3/4 43/3/4
f 42/2/4 39/2/4 43/2/4
f 43/3/4 40/3/4 44/3/4
f 47/1/5 46/1/5 45/1/5
f 48/1/5 46/1/5 47/1/5
f 51/1/5 50/1/5 49/1/5
f 52/1/5 50/1/5 51/1/5
f 53/2/6 54/2/6 55/2/6
f 55/2/6 54/2/6 56/2/6
f 57/3/6 58/3/6 59/3/6
f 59/3/6 58/3/6 60/3/6
